<?xml version="1.0" encoding="utf-8"?>
<!-- Generator: Adobe Illustrator 24.0.1, SVG Export Plug-In . SVG Version: 6.00 Build 0)  -->
<svg version="1.1" id="Layer_1" xmlns="http://www.w3.org/2000/svg" xmlns:xlink="http://www.w3.org/1999/xlink" x="0px" y="0px"
	 viewBox="0 0 433.3 309.1" style="enable-background:new 0 0 433.3 309.1;" xml:space="preserve">
<style type="text/css">
	.st0{fill:#0099DC;}
</style>
<g>
	<path class="st0" d="M98.2,8c50.3,10,84.6,39.5,94.7,50.6l-41,41.3c-21.9-20.1-45-32.3-80.1-36.8h26.3C98.2,44.7,98.2,8,98.2,8"/>
	<path class="st0" d="M190.4,66.8c8.2,11.4,32.1,53.6,32.1,103.3h-58.6c-0.6-34.6-16.1-65.1-27.8-78.4c3.7,2.4,12.6,10.7,16.1,13.8
		L190.4,66.8z"/>
	<path class="st0" d="M159.2,161.8c0.4,3.3,0.6,8.2,0.6,12.3c4.3,0,50.8,0,56.8,0c-4.8,41-23.9,80-52.9,109.3l-41.5-41.5
		C145.8,217,155.5,191.4,159.2,161.8z"/>
	<path class="st0" d="M131.5,224.5c-0.8,1.2-9.1,11.8-14.9,17.4l37.7,38.3c-37.9,23.2-71,28-98.7,28.9v-59
		C73.1,250.1,103.7,245.2,131.5,224.5z"/>
	<rect x="0.1" y="132.9" class="st0" width="45.7" height="176"/>
	<rect x="0.1" y="88.6" class="st0" width="45.7" height="31.3"/>
	<rect class="st0" width="94" height="58.9"/>
	<path class="st0" d="M55.5,309"/>
	<polygon class="st0" points="315.3,193.4 315.3,174 238.3,174 238.3,309 315.3,309 315.3,289.6 266.4,289.6 266.4,237.4 
		305.3,237.4 305.3,218 266.4,218 266.4,193.4 	"/>
	<path class="st0" d="M384.2,174.9h-0.1l-49,134.1h98.2L384.2,174.9z M364.6,290.9l19.5-55.5l19.5,55.5H364.6z"/>
</g>
</svg>
