<?xml version="1.0" encoding="utf-8"?>
<!-- Generator: Adobe Illustrator 24.0.0, SVG Export Plug-In . SVG Version: 6.00 Build 0)  -->
<svg version="1.1" id="Layer_1" xmlns="http://www.w3.org/2000/svg" xmlns:xlink="http://www.w3.org/1999/xlink" x="0px" y="0px"
	 viewBox="0 0 509.86 438.62" style="enable-background:new 0 0 509.86 438.62;" xml:space="preserve">
<style type="text/css">
	.st0{fill:#FFFFFF;}
	.st1{fill:#37474F;}
	.st2{fill:#EEEEEE;}
	.st3{fill:#78909C;}
	.st4{fill:#BDBDBD;}
	.st5{fill:#38474E;}
	.st6{fill:#FFCA28;}
	.st7{fill:#616161;}
	.st8{fill:#FFE082;}
	.st9{fill:#FFA000;}
	.st10{fill:#26C6DA;}
	.st11{fill:#FF7043;}
</style>
<g>
	<g>
		<rect x="99.28" y="170.99" class="st0" width="137.03" height="190.23"/>
		<path class="st1" d="M236.31,364.73H99.28c-1.93,0-3.5-1.57-3.5-3.5V171c0-1.93,1.57-3.5,3.5-3.5h137.03c1.93,0,3.5,1.57,3.5,3.5
			v190.23C239.81,363.16,238.25,364.73,236.31,364.73z M102.78,357.73h130.03V174.5H102.78V357.73z"/>
	</g>
	<g>
		<path class="st2" d="M7.01,3.5h383.52c59.37,0,112.42,41.91,112.42,93.6v57.79c0,8.89-7.21,16.11-16.11,16.11H113.58"/>
		<path class="st1" d="M486.84,174.5H113.58c-1.93,0-3.5-1.57-3.5-3.5s1.57-3.5,3.5-3.5h373.26c6.95,0,12.61-5.65,12.61-12.61V97.1
			c0-48.84-49.88-90.1-108.92-90.1H7.01c-1.93,0-3.5-1.57-3.5-3.5S5.07,0,7.01,0h383.52c62.84,0,115.92,44.47,115.92,97.1v57.79
			C506.45,165.7,497.65,174.5,486.84,174.5z"/>
	</g>
	<g>
		<rect x="174.97" y="123.25" class="st3" width="288.38" height="47.75"/>
		<path class="st1" d="M463.35,174.5H174.97c-1.93,0-3.5-1.57-3.5-3.5v-47.75c0-1.93,1.57-3.5,3.5-3.5h288.38
			c1.93,0,3.5,1.57,3.5,3.5V171C466.85,172.93,465.29,174.5,463.35,174.5z M178.47,167.5h281.38v-40.75H178.47V167.5z"/>
	</g>
	<g>
		<rect x="34.76" y="170.99" class="st4" width="32.97" height="238.74"/>
		<path class="st1" d="M67.73,413.23H34.76c-1.93,0-3.5-1.57-3.5-3.5V171c0-1.93,1.57-3.5,3.5-3.5h32.97c1.93,0,3.5,1.57,3.5,3.5
			v238.74C71.23,411.66,69.66,413.23,67.73,413.23z M38.26,406.23h25.97V174.5H38.26V406.23z"/>
	</g>
	<g>
		<path class="st2" d="M9.66,409.73h114.63c3.4,0,6.16,2.76,6.16,6.16v13.07c0,3.4-2.76,6.16-6.16,6.16H9.66
			c-3.4,0-6.16-2.76-6.16-6.16v-13.07C3.5,412.49,6.26,409.73,9.66,409.73z"/>
		<path class="st1" d="M124.29,438.62H9.66c-5.33,0-9.66-4.33-9.66-9.66v-13.07c0-5.33,4.33-9.66,9.66-9.66h114.63
			c5.33,0,9.66,4.33,9.66,9.66v13.07C133.95,434.29,129.62,438.62,124.29,438.62z M9.66,413.23c-1.47,0-2.66,1.19-2.66,2.66v13.07
			c0,1.47,1.19,2.66,2.66,2.66h114.63c1.46,0,2.66-1.19,2.66-2.66v-13.07c0-1.47-1.19-2.66-2.66-2.66H9.66z"/>
	</g>
	<g>
		<path class="st4" d="M9.66,409.73h83.46c3.4,0,6.16,2.76,6.16,6.16v13.07c0,3.4-2.76,6.16-6.16,6.16H9.66
			c-3.4,0-6.16-2.76-6.16-6.16v-13.07C3.5,412.49,6.26,409.73,9.66,409.73z"/>
		<path class="st1" d="M93.12,438.62H9.66c-5.33,0-9.66-4.33-9.66-9.66v-13.07c0-5.33,4.33-9.66,9.66-9.66h83.46
			c5.33,0,9.66,4.33,9.66,9.66v13.07C102.78,434.29,98.45,438.62,93.12,438.62z M9.66,413.23c-1.47,0-2.66,1.19-2.66,2.66v13.07
			c0,1.47,1.19,2.66,2.66,2.66h83.46c1.47,0,2.66-1.19,2.66-2.66v-13.07c0-1.47-1.19-2.66-2.66-2.66H9.66z"/>
	</g>
	<g>
		
			<rect x="67.73" y="170.99" transform="matrix(-1 -1.224647e-16 1.224647e-16 -1 167.0109 580.7267)" class="st2" width="31.55" height="238.74"/>
		<path class="st1" d="M99.28,413.23H67.73c-1.93,0-3.5-1.57-3.5-3.5V171c0-1.93,1.57-3.5,3.5-3.5h31.55c1.93,0,3.5,1.57,3.5,3.5
			v238.74C102.78,411.66,101.21,413.23,99.28,413.23z M71.23,406.23h24.55V174.5H71.23V406.23z"/>
	</g>
	<g>
		<path class="st1" d="M443.65,413.23h-32.97c-1.93,0-3.5-1.57-3.5-3.5V171c0-1.93,1.57-3.5,3.5-3.5h32.97c1.93,0,3.5,1.57,3.5,3.5
			v238.74C447.15,411.66,445.58,413.23,443.65,413.23z M414.18,406.23h25.97V174.5h-25.97V406.23z"/>
	</g>
	<g>
		<path class="st2" d="M385.57,409.73h114.63c3.4,0,6.16,2.76,6.16,6.16v13.07c0,3.4-2.76,6.16-6.16,6.16H385.57
			c-3.4,0-6.16-2.76-6.16-6.16v-13.07C379.42,412.49,382.17,409.73,385.57,409.73z"/>
		<path class="st1" d="M500.21,438.62H385.57c-5.33,0-9.66-4.33-9.66-9.66v-13.07c0-5.33,4.33-9.66,9.66-9.66h114.63
			c5.33,0,9.66,4.33,9.66,9.66v13.07C509.86,434.29,505.53,438.62,500.21,438.62z M385.57,413.23c-1.47,0-2.66,1.19-2.66,2.66v13.07
			c0,1.47,1.19,2.66,2.66,2.66h114.63c1.47,0,2.66-1.19,2.66-2.66v-13.07c0-1.47-1.19-2.66-2.66-2.66H385.57z"/>
	</g>
	<g>
		<path class="st4" d="M385.57,409.73h83.46c3.4,0,6.16,2.76,6.16,6.16v13.07c0,3.4-2.76,6.16-6.16,6.16h-83.46
			c-3.4,0-6.16-2.76-6.16-6.16v-13.07C379.42,412.49,382.17,409.73,385.57,409.73z"/>
		<path class="st1" d="M469.04,438.62h-83.46c-5.33,0-9.66-4.33-9.66-9.66v-13.07c0-5.33,4.33-9.66,9.66-9.66h83.46
			c5.33,0,9.66,4.33,9.66,9.66v13.07C478.7,434.29,474.36,438.62,469.04,438.62z M385.57,413.23c-1.47,0-2.66,1.19-2.66,2.66v13.07
			c0,1.47,1.19,2.66,2.66,2.66h83.46c1.47,0,2.66-1.19,2.66-2.66v-13.07c0-1.47-1.19-2.66-2.66-2.66H385.57z"/>
	</g>
	<g>
		
			<rect x="443.65" y="170.99" transform="matrix(-1 -1.224647e-16 1.224647e-16 -1 918.8425 580.7267)" class="st2" width="31.55" height="238.74"/>
		<path class="st1" d="M475.2,413.23h-31.55c-1.93,0-3.5-1.57-3.5-3.5V171c0-1.93,1.57-3.5,3.5-3.5h31.55c1.93,0,3.5,1.57,3.5,3.5
			v238.74C478.7,411.66,477.13,413.23,475.2,413.23z M447.15,406.23h24.55V174.5h-24.55V406.23z"/>
	</g>
	<g>
		<rect x="99.28" y="361.23" class="st2" width="111.95" height="25.67"/>
		<path class="st1" d="M211.23,390.4H99.28c-1.93,0-3.5-1.57-3.5-3.5v-25.67c0-1.93,1.57-3.5,3.5-3.5h111.95
			c1.93,0,3.5,1.57,3.5,3.5v25.67C214.73,388.83,213.16,390.4,211.23,390.4z M102.78,383.4h104.95v-18.67H102.78V383.4z"/>
	</g>
	<g>
		<path class="st1" d="M343.04,86.39h-47.75c-1.93,0-3.5-1.57-3.5-3.5s1.57-3.5,3.5-3.5h47.75c1.93,0,3.5,1.57,3.5,3.5
			S344.97,86.39,343.04,86.39z"/>
	</g>
	<g>
		<circle class="st5" cx="414.9" cy="82.89" r="15.66"/>
	</g>
	<g>
		<circle class="st6" cx="414.9" cy="82.89" r="8.03"/>
	</g>
	<g>
		<circle class="st5" cx="454.9" cy="82.89" r="15.66"/>
	</g>
	<g>
		<circle class="st6" cx="454.9" cy="82.89" r="8.03"/>
	</g>
	<g>
		<path class="st4" d="M118.32,170.99H23.11c-8.89,0-16.11-7.21-16.11-16.11V3.5h15c59.37,0,112.42,41.91,112.42,93.6v57.79
			C134.43,163.78,127.22,170.99,118.32,170.99z"/>
		<path class="st1" d="M118.32,174.5H23.11c-10.81,0-19.6-8.79-19.6-19.61V3.5c0-1.93,1.57-3.5,3.5-3.5h15
			c62.84,0,115.92,44.47,115.92,97.1v57.79C137.93,165.7,129.13,174.5,118.32,174.5z M10.51,7v147.89c0,6.95,5.65,12.61,12.6,12.61
			h95.21c6.95,0,12.61-5.65,12.61-12.61V97.1C130.93,48.26,81.05,7,22.01,7H10.51z"/>
	</g>
	<g>
		<path class="st7" d="M118.35,158.49c-1.87,0-3.44-1.47-3.51-3.36c-0.01-0.32,0.02-0.63,0.08-0.93V97.1
			c0-18.8-9.52-36.94-26.8-51.1C70.55,31.61,46.8,23.23,22.97,23c-1.93-0.02-3.49-1.6-3.47-3.53C19.52,17.55,21.09,16,23,16
			c0.01,0,0.02,0,0.03,0c25.39,0.24,50.73,9.2,69.52,24.58c18.94,15.51,29.37,35.58,29.37,56.51v57.79c0,0.69-0.2,1.37-0.59,1.94
			l-0.07,0.1c-0.62,0.93-1.65,1.51-2.77,1.56C118.45,158.49,118.4,158.49,118.35,158.49z M118.43,154.89L118.43,154.89
			L118.43,154.89z"/>
	</g>
	<g>
		<path class="st4" d="M486.87,158.49c-1.87,0-3.43-1.47-3.51-3.35c-0.01-0.32,0.02-0.63,0.08-0.93V97.1
			c0-18.8-9.52-36.94-26.8-51.1c-17.58-14.39-41.32-22.78-65.15-23c-1.93-0.02-3.49-1.6-3.47-3.53c0.02-1.92,1.58-3.47,3.5-3.47
			c0.01,0,0.02,0,0.03,0c25.39,0.24,50.73,9.2,69.52,24.58c18.94,15.51,29.37,35.58,29.37,56.51v57.79c0,0.69-0.2,1.37-0.59,1.94
			l-0.07,0.1c-0.62,0.93-1.65,1.51-2.77,1.56C486.97,158.49,486.92,158.49,486.87,158.49z M486.95,154.89L486.95,154.89
			L486.95,154.89z"/>
	</g>
	<g>
		<path class="st1" d="M502.95,126.75H134.43c-1.93,0-3.5-1.57-3.5-3.5s1.57-3.5,3.5-3.5h368.52c1.93,0,3.5,1.57,3.5,3.5
			S504.88,126.75,502.95,126.75z"/>
	</g>
	<g>
		<path class="st6" d="M475.19,435.12H249.63c-21.21,0-38.4-17.19-38.4-38.4V185.21c0-19.8-13.14-38.08-36.25-38.08h229.58
			c21.59,0,39.09,17.5,39.09,39.09v212.34C443.65,421.29,463.54,435.12,475.19,435.12z"/>
		<path class="st1" d="M475.2,438.62H249.63c-23.1,0-41.9-18.8-41.9-41.9V185.21c0-17.19-11.25-34.58-32.75-34.58
			c-1.93,0-3.5-1.57-3.5-3.5s1.57-3.5,3.5-3.5h229.58c23.49,0,42.59,19.11,42.59,42.6v212.34c0,20.51,18.16,33.07,28.05,33.07
			c1.93,0,3.5,1.57,3.5,3.5S477.13,438.62,475.2,438.62z M198.06,150.62c11,7.86,16.66,21.28,16.66,34.58v211.52
			c0,19.24,15.66,34.9,34.9,34.9h207.42c-9.19-6.9-16.9-18.5-16.9-33.07V186.22c0-19.63-15.97-35.6-35.59-35.6H198.06z"/>
	</g>
	<g>
		<path class="st8" d="M249.63,423c-14.28,0-25.9-11.62-25.9-25.9V185.21c0-7.34-1.33-14.33-3.97-20.76
			c-0.73-1.79,0.13-3.83,1.91-4.56c1.79-0.73,3.83,0.12,4.56,1.91c2.98,7.28,4.49,15.15,4.49,23.41V397.1
			c0,10.42,8.48,18.9,18.9,18.9c1.93,0,3.5,1.57,3.5,3.5S251.56,423,249.63,423z"/>
	</g>
	<g>
		<path class="st9" d="M431.78,423c-1.37,0-2.66-0.8-3.23-2.14c-2.92-6.95-4.41-14.33-4.41-21.93V186.22
			c0-10.8-8.79-19.6-19.59-19.6c-1.93,0-3.5-1.57-3.5-3.5s1.57-3.5,3.5-3.5c14.66,0,26.59,11.93,26.59,26.6v212.72
			c0,6.66,1.3,13.13,3.86,19.21c0.75,1.78-0.09,3.83-1.87,4.58C432.7,422.91,432.24,423,431.78,423z"/>
	</g>
	<g>
		<polygon class="st10" points="243.18,355.16 283.03,276.85 307.64,322.07 290.68,355.16 		"/>
		<path class="st1" d="M290.68,358.66h-47.49c-1.22,0-2.35-0.63-2.98-1.67c-0.64-1.04-0.69-2.33-0.14-3.42l39.84-78.32
			c0.59-1.16,1.77-1.89,3.07-1.91c0.02,0,0.03,0,0.05,0c1.28,0,2.46,0.7,3.07,1.83l24.61,45.22c0.55,1.02,0.57,2.24,0.04,3.27
			l-16.96,33.1C293.19,357.93,291.99,358.66,290.68,358.66z M248.89,351.66h39.65l15.14-29.55l-20.55-37.75L248.89,351.66z"/>
	</g>
	<g>
		<polygon class="st10" points="290.68,355.16 351.75,235.98 410.88,355.16 		"/>
		<path class="st1" d="M410.88,358.66h-120.2c-1.22,0-2.35-0.63-2.99-1.67s-0.68-2.34-0.13-3.42l61.07-119.18
			c0.6-1.17,1.8-1.9,3.12-1.9c0.01,0,0.01,0,0.02,0c1.32,0.01,2.53,0.76,3.11,1.94l59.13,119.18c0.54,1.08,0.48,2.37-0.16,3.4
			C413.22,358.04,412.09,358.66,410.88,358.66z M296.41,351.66h108.83L351.7,243.75L296.41,351.66z"/>
	</g>
	<g>
		<circle class="st1" cx="283.44" cy="218.79" r="27.77"/>
	</g>
	<g>
		<circle class="st11" cx="283.44" cy="218.79" r="19.63"/>
	</g>
	<g>
		<path class="st1" d="M443.65,358.66H211.23c-1.93,0-3.5-1.57-3.5-3.5s1.57-3.5,3.5-3.5h232.42c1.93,0,3.5,1.57,3.5,3.5
			S445.58,358.66,443.65,358.66z"/>
	</g>
</g>
</svg>
