<?xml version="1.0" encoding="utf-8"?>
<!-- Generator: Adobe Illustrator 24.0.0, SVG Export Plug-In . SVG Version: 6.00 Build 0)  -->
<svg version="1.1" id="Layer_1" xmlns="http://www.w3.org/2000/svg" xmlns:xlink="http://www.w3.org/1999/xlink" x="0px" y="0px"
	 viewBox="0 0 420.11 484.96" style="enable-background:new 0 0 420.11 484.96;" xml:space="preserve">
<style type="text/css">
	.st0{fill:#EEEEEE;}
	.st1{fill:#37474F;}
	.st2{fill:#BDBDBD;}
	.st3{fill:#FFCA28;}
	.st4{fill:#FFE082;}
	.st5{fill:#26C6DA;}
	.st6{fill:#FF7043;}
</style>
<g>
	<g>
		<path class="st0" d="M409.7,50.42c-14.59-34.79-48.61-56.04-73.94-43.07C259.42,46.44,31.43,163.72,31.43,163.72
			c26.25-11.01,59.35,8.28,73.94,43.07c13.62,32.49,6.28,67.01-16.13,80.4c33.8-17.14,230.47-116.98,299.36-153.84
			C414.95,119.25,424.29,85.22,409.7,50.42z"/>
		<path class="st1" d="M89.24,290.69c-1.24,0-2.43-0.66-3.07-1.81c-0.91-1.65-0.35-3.73,1.27-4.7
			c21.24-12.69,27.55-45.38,14.7-76.04c-13.82-32.96-44.94-51.44-69.36-41.2c-1.74,0.73-3.73-0.05-4.53-1.75
			c-0.79-1.7-0.1-3.73,1.57-4.59c2.28-1.17,228.87-117.72,304.34-156.36c10.18-5.21,21.97-5.63,34.1-1.19
			c18.75,6.85,35.45,24.06,44.66,46.03c7.41,17.67,9.12,35.46,4.96,51.46c-4.12,15.82-13.94,28.57-27.64,35.91
			c-68.47,36.63-261.44,134.6-299.43,153.87C90.31,290.56,89.77,290.69,89.24,290.69z M51.42,157.37
			c22.62,2.18,45.59,20.44,57.17,48.06c10.4,24.81,9.13,51.01-1.82,68.93c62.08-31.53,219.73-111.76,280.17-144.1
			c25.22-13.49,33.25-45.77,19.53-78.48c-8.35-19.9-23.91-36.06-40.61-42.16c-10.25-3.74-20.11-3.45-28.51,0.85
			C274.58,42.61,107.24,128.66,51.42,157.37z"/>
	</g>
	<g>
		<path class="st1" d="M84.26,293.21c-1.33,0-2.59-0.76-3.18-2.03c-0.79-1.71-0.09-3.74,1.59-4.59l4.98-2.52
			c1.68-0.86,3.74-0.22,4.65,1.43c0.91,1.65,0.35,3.73-1.27,4.69c-1.77,1.06-3.59,1.98-5.42,2.75
			C85.17,293.12,84.71,293.21,84.26,293.21z"/>
	</g>
	<g>
		<path class="st2" d="M105.37,206.79c-14.59-34.79-47.69-54.08-73.94-43.07c-26.25,11.01-35.7,48.13-21.11,82.92
			c14.59,34.79,47.69,54.08,73.94,43.07c0,0,1.75-0.89,4.98-2.52C111.64,273.8,118.99,239.28,105.37,206.79z"/>
		<path class="st1" d="M68.79,296.28c-24.02,0-49.34-18.82-61.7-48.29c-15.31-36.52-5-75.77,22.98-87.51
			c27.99-11.74,63.21,8.43,78.52,44.94l0,0c14.2,33.86,6.65,70.3-17.56,84.76c-0.07,0.04-0.14,0.08-0.21,0.12l-4.98,2.53
			c-0.08,0.04-0.15,0.07-0.23,0.11C80.21,295.2,74.54,296.28,68.79,296.28z M47.02,164.12c-4.88,0-9.68,0.91-14.24,2.83
			c-24.42,10.24-33.05,45.39-19.23,78.34c13.8,32.91,44.84,51.38,69.24,41.24l4.75-2.41c21.16-12.73,27.43-45.37,14.6-75.98
			C90.9,181.34,68.23,164.12,47.02,164.12z"/>
	</g>
	<g>
		
			<ellipse transform="matrix(0.9222 -0.3867 0.3867 0.9222 -83.1689 40.004)" class="st3" cx="57.84" cy="226.71" rx="20.01" ry="26.53"/>
		<path class="st1" d="M62.13,255.86c-10.19,0-20.83-7.8-25.97-20.06c-3.03-7.23-3.75-14.97-2.01-21.78
			c1.83-7.17,6.12-12.5,12.08-15c11.96-5.01,26.89,3.33,33.3,18.6c0,0,0,0,0,0c6.4,15.27,1.88,31.77-10.07,36.79
			C67.1,255.39,64.63,255.86,62.13,255.86z M53.69,204.53c-1.63,0-3.23,0.3-4.75,0.94c-3.89,1.63-6.74,5.28-8.01,10.27
			c-1.36,5.35-0.76,11.51,1.68,17.35c4.91,11.71,15.74,18.37,24.13,14.85c8.4-3.52,11.23-15.91,6.32-27.62
			C69.05,210.74,61.06,204.53,53.69,204.53z"/>
	</g>
	<g>
		
			<ellipse transform="matrix(0.9222 -0.3867 0.3867 0.9222 -137.9061 51.0156)" class="st2" cx="57.84" cy="368.26" rx="51.53" ry="68.31"/>
		<path class="st1" d="M68.79,437.83c-24.02,0-49.34-18.82-61.7-48.29c-15.31-36.52-5-75.77,22.98-87.5
			c13.73-5.76,29.52-4.14,44.46,4.56c14.62,8.52,26.72,22.86,34.06,40.38c15.31,36.52,5,75.77-22.98,87.51
			C80.21,436.75,74.54,437.83,68.79,437.83z M47.04,305.66c-4.95,0-9.75,0.94-14.26,2.83c-24.42,10.24-33.05,45.39-19.23,78.34
			c11.23,26.79,33.91,44.02,55.11,44.02c4.88,0,9.68-0.91,14.24-2.83c24.42-10.24,33.05-45.39,19.23-78.34
			c-6.76-16.13-17.82-29.28-31.13-37.04C63.04,308.01,54.86,305.66,47.04,305.66z"/>
	</g>
	<g>
		
			<ellipse transform="matrix(0.9222 -0.3867 0.3867 0.9222 -137.9061 51.0156)" class="st3" cx="57.84" cy="368.26" rx="20.01" ry="26.53"/>
		<path class="st1" d="M62.13,397.41c-10.19,0-20.83-7.79-25.97-20.06c-3.03-7.23-3.75-14.97-2.01-21.78
			c1.83-7.17,6.12-12.5,12.08-15c11.96-5.01,26.89,3.33,33.3,18.6l0,0c6.4,15.27,1.88,31.77-10.07,36.79
			C67.1,396.94,64.63,397.41,62.13,397.41z M53.69,346.09c-1.63,0-3.23,0.3-4.75,0.94c-3.89,1.63-6.74,5.28-8.01,10.27
			c-1.36,5.35-0.76,11.51,1.68,17.35c4.91,11.71,15.73,18.37,24.13,14.85c8.4-3.52,11.23-15.91,6.32-27.62l0,0
			C69.05,352.29,61.06,346.09,53.69,346.09z"/>
	</g>
	<g>
		<path class="st0" d="M363.35,146.69c-82.7,43.34-243.83,125.13-274.12,140.5c-3.23,1.64-4.98,2.52-4.98,2.52
			c-8.29,3.48-17.26,3.92-26.12,1.82l-0.01,0c-16.63,8.55-26.7,13.73-26.7,13.73c26.25-11.01,59.35,8.28,73.94,43.07
			c13.62,32.49,6.28,67.01-16.13,80.4c14-7.1,55.9-28.37,105.09-53.47l161.36-83.01c12.72-6.64,23.9-12.53,32.91-17.35
			c26.36-14.1,35.7-48.13,21.11-82.92C400.05,168.95,381.88,151.86,363.35,146.69z"/>
		<path class="st1" d="M89.24,432.24c-1.24,0-2.43-0.66-3.07-1.81c-0.91-1.65-0.35-3.73,1.27-4.7
			c21.24-12.69,27.55-45.38,14.7-76.04c-6.76-16.13-17.82-29.28-31.13-37.04c-13-7.57-26.57-9.04-38.23-4.16
			c-1.74,0.73-3.73-0.05-4.53-1.75c-0.79-1.7-0.1-3.73,1.57-4.59l26.7-13.73c0.74-0.38,1.6-0.49,2.41-0.3
			c8.33,1.98,16.58,1.42,23.85-1.6l4.86-2.46c31.28-15.87,191.52-97.21,274.08-140.48c0.79-0.41,1.71-0.51,2.57-0.27
			c20.12,5.61,38.75,23.74,48.63,47.31c7.41,17.67,9.12,35.46,4.96,51.46c-4.12,15.82-13.94,28.57-27.64,35.91
			c-8.61,4.61-19.69,10.45-32.94,17.37l-161.38,83.02c-48.18,24.59-89.56,45.59-105.11,53.48
			C90.31,432.12,89.77,432.24,89.24,432.24z M51.52,298.87c7.63,0.73,15.43,3.32,23.01,7.74c14.62,8.52,26.72,22.86,34.06,40.38
			c10.4,24.81,9.13,51.01-1.82,68.93c20.54-10.43,51.52-26.18,85.97-43.76l161.35-83.01c13.21-6.9,24.27-12.73,32.86-17.32
			c25.22-13.49,33.25-45.77,19.53-78.48c-8.72-20.79-25.39-37.46-42.75-42.88c-82.96,43.45-241.77,124.07-272.9,139.86l-4.98,2.53
			c-0.08,0.04-0.15,0.07-0.23,0.11c-8.3,3.48-17.61,4.26-27,2.29L51.52,298.87z M84.26,289.71L84.26,289.71L84.26,289.71z"/>
	</g>
	<g>
		<g>
			<path class="st3" d="M139.09,261.86c32.88,12.24,55.24,37.98,55.24,72.5s0,90.66,0,108.54c0,35.14,18.32,43.97,35.48,35.61
				c15.71-7.66,127.13-66.38,136.28-71.79c9.15-5.41,6.24-13.31,0-18.71c-6.24-5.41-10.4-13.31-10.4-44.08s0-70.7,0-93.99
				s-8.32-61.27-51.68-72.44L139.09,261.86z"/>
			<path class="st1" d="M218.05,484.96c-4.36,0-8.48-1.15-12.15-3.44c-6.87-4.29-15.07-14.48-15.07-38.62V334.36
				c0-31.46-19.3-56.69-52.96-69.22c-1.3-0.48-2.19-1.69-2.27-3.08s0.67-2.69,1.9-3.32l164.92-84.37c0.76-0.39,1.64-0.49,2.47-0.27
				c49.01,12.63,54.3,57.24,54.3,75.83v93.99c0,30.91,4.35,37.24,9.19,41.44c4.93,4.27,7.41,9.23,6.98,13.96
				c-0.26,2.88-1.77,7.03-7.49,10.41c-9.65,5.7-120.65,64.18-136.52,71.92C226.82,483.86,222.32,484.96,218.05,484.96z
				 M147.45,261.51c31.7,14.34,50.38,41.11,50.38,72.84V442.9c0,16.33,4.18,27.93,11.78,32.68c5.15,3.22,11.78,3.14,18.66-0.22
				c15.03-7.33,126.91-66.26,136.03-71.65c2.54-1.5,3.92-3.19,4.08-5.02c0.21-2.35-1.5-5.36-4.59-8.04
				c-7.53-6.52-11.6-15.9-11.6-46.73v-93.99c0-16.8-4.69-56.86-47.78-68.72L147.45,261.51z"/>
		</g>
		<g>
			<path class="st4" d="M219.38,471.77L219.38,471.77c-13.04,0-14.06-22.1-14.06-28.87V334.36c0-28.31-13.5-53.02-38-69.58
				c-1.6-1.08-2.02-3.26-0.94-4.86c1.08-1.6,3.26-2.02,4.86-0.94c26.49,17.9,41.08,44.67,41.08,75.38V442.9
				c0,12.26,3.1,21.87,7.06,21.87c1.93,0,3.5,1.57,3.5,3.5C222.88,470.2,221.31,471.77,219.38,471.77z"/>
		</g>
		<g>
			<path class="st1" d="M224.01,341.12c-1.28,0-2.5-0.7-3.12-1.92c-0.88-1.72-0.19-3.83,1.53-4.71l111.3-56.59
				c1.72-0.87,3.83-0.19,4.71,1.53s0.19,3.83-1.53,4.71l-111.3,56.59C225.08,341,224.54,341.12,224.01,341.12z"/>
		</g>
		<g>
			<path class="st1" d="M224.01,323.95c-1.27,0-2.5-0.7-3.12-1.91c-0.88-1.72-0.2-3.83,1.52-4.71l58.48-29.91
				c1.72-0.88,3.83-0.2,4.71,1.52c0.88,1.72,0.2,3.83-1.52,4.71l-58.48,29.91C225.09,323.83,224.54,323.95,224.01,323.95z"/>
		</g>
		<g>
			<path class="st1" d="M224.01,360.04c-1.28,0-2.5-0.7-3.12-1.92c-0.88-1.72-0.19-3.83,1.53-4.71l111.3-56.59
				c1.72-0.87,3.83-0.19,4.71,1.53s0.19,3.83-1.53,4.71l-111.3,56.59C225.08,359.92,224.54,360.04,224.01,360.04z"/>
		</g>
		<g>
			<path class="st1" d="M224.01,377.54c-1.28,0-2.5-0.7-3.12-1.92c-0.88-1.72-0.19-3.83,1.53-4.71l111.3-56.59
				c1.72-0.87,3.83-0.19,4.71,1.53s0.19,3.83-1.53,4.71l-111.3,56.59C225.08,377.42,224.54,377.54,224.01,377.54z"/>
		</g>
		<g>
			<path class="st1" d="M224.01,433.84c-1.27,0-2.5-0.7-3.12-1.91c-0.88-1.72-0.2-3.83,1.52-4.71l40.64-20.79
				c1.72-0.88,3.83-0.2,4.71,1.52s0.2,3.83-1.52,4.71l-40.64,20.79C225.09,433.72,224.54,433.84,224.01,433.84z"/>
		</g>
		<g>
			<path class="st1" d="M224.01,394.45c-1.28,0-2.5-0.7-3.12-1.92c-0.88-1.72-0.19-3.83,1.53-4.71l111.3-56.59
				c1.72-0.87,3.83-0.19,4.71,1.53c0.88,1.72,0.19,3.83-1.53,4.71l-111.3,56.59C225.08,394.32,224.54,394.45,224.01,394.45z"/>
		</g>
		<g>
			<path class="st1" d="M224.01,417.11c-1.27,0-2.5-0.7-3.12-1.91c-0.88-1.72-0.2-3.83,1.52-4.71l39.28-20.09
				c1.72-0.88,3.83-0.2,4.71,1.52s0.2,3.83-1.52,4.71l-39.28,20.09C225.09,416.99,224.54,417.11,224.01,417.11z"/>
		</g>
		<g>
			<path class="st5" d="M336.63,352.28l-55.6,28.48c-0.89,0.46-1.45,1.37-1.45,2.37v22.33c0,0.57,0.61,0.94,1.12,0.68l58.45-29.94
				c0.83-0.43,1.36-1.28,1.36-2.22v-19.34C340.51,352.66,338.4,351.38,336.63,352.28z"/>
			<path class="st1" d="M280.35,409.74c-0.77,0-1.54-0.21-2.22-0.63c-1.28-0.78-2.04-2.14-2.04-3.64v-22.33
				c0-2.32,1.29-4.42,3.35-5.48l55.6-28.48c0,0,0,0,0,0c1.92-0.99,4.18-0.9,6.02,0.23c1.84,1.13,2.95,3.09,2.95,5.26v19.34
				c0,2.26-1.25,4.3-3.26,5.33l-58.46,29.94C281.68,409.58,281.01,409.74,280.35,409.74z M283.08,383.65v17.35l53.92-27.62v-17.35
				L283.08,383.65z M338.23,355.4L338.23,355.4L338.23,355.4L338.23,355.4z"/>
		</g>
		<g>
			<path class="st6" d="M276.99,268.99l-52.2,25.51c-1.29,0.63-2.85,0.06-3.41-1.26c-4.29-10.13-10.03-18.83-17.45-25.88
				c-1.28-1.21-0.96-3.32,0.62-4.09l51.84-25.33c0.63-0.31,1.38-0.35,2.03-0.09c11.9,4.75,18.52,14.34,19.98,28.65
				C278.5,267.54,277.92,268.54,276.99,268.99z"/>
			<path class="st1" d="M223.67,298.26c-0.72,0-1.43-0.13-2.11-0.38c-1.53-0.57-2.78-1.76-3.41-3.27
				c-4.19-9.89-9.79-18.2-16.64-24.71c-1.43-1.36-2.11-3.34-1.81-5.29c0.3-1.94,1.53-3.62,3.3-4.48l51.84-25.33
				c1.53-0.75,3.3-0.82,4.86-0.2c13.1,5.23,20.56,15.84,22.17,31.54c0.25,2.48-1.09,4.89-3.35,5.99l-52.2,25.51
				C225.49,298.05,224.58,298.26,223.67,298.26z M207.34,265.8c6.87,6.8,12.52,15.23,16.83,25.1l50.66-24.75
				c-1.46-12.51-7.13-20.65-17.3-24.87L207.34,265.8z M275.45,265.85C275.45,265.85,275.45,265.85,275.45,265.85L275.45,265.85
				L275.45,265.85z"/>
		</g>
		<g>
			<path class="st6" d="M330.37,244.4l-38.54,18.52c-1.21,0.58-2.64-0.1-2.94-1.41c-2.43-10.62-7.76-22.18-17.19-28.21
				c-1.38-0.89-1.3-2.93,0.18-3.65l39.59-19.47c0.31-0.15,0.66-0.24,1.01-0.22c13.64,0.54,25.55,21.86,18.8,33.62
				C331.07,243.93,330.74,244.22,330.37,244.4z"/>
			<path class="st1" d="M290.92,266.63c-0.83,0-1.65-0.19-2.42-0.56c-1.54-0.74-2.64-2.12-3.02-3.78
				c-1.61-7.01-5.78-19.72-15.67-26.05c-1.71-1.1-2.7-3.03-2.59-5.05c0.11-2.01,1.31-3.8,3.11-4.69l39.59-19.47
				c0.85-0.42,1.79-0.62,2.69-0.58c7.57,0.3,15.25,5.87,20.04,14.53c4.72,8.55,5.36,17.87,1.65,24.33c-0.56,0.97-1.4,1.74-2.43,2.24
				l-38.54,18.52C292.58,266.44,291.75,266.63,290.92,266.63z M275.57,231.72c9.8,7.38,14.33,19.51,16.32,27.29l36.57-17.58
				c2.2-4.3,1.46-10.93-1.92-17.06c-3.47-6.28-8.87-10.52-13.83-10.91L275.57,231.72z"/>
		</g>
	</g>
</g>
</svg>
